# xmcd
#
# Track frame offsets:
# 150
# 18734
# 48593
# 67132
# 87273
# 112111
# 133220
# 151855
# 167097
# 187895
# 212227
# 235119
# 254596
# 275801
# 297422
#
# Disc length: 4217 seconds
#
# Revision: 0
# Processed by: cddbd v1.4PL0 Copyright (c) Steve Scherf et al.
# Submitted via: Audion 3.0.2 (http://www.panic.com/audion/)
#
DISCID=ec10770f
DTITLE=Dispatch - Varias
DYEAR=1900
DGENRE=
TTITLE0=The General
TTITLE1=Elias
TTITLE2=Batas In The Belfry
TTITLE3=Bang Bang
TTITLE4=Here We Go
TTITLE5=Even
TTITLE6=Railway
TTITLE7=Out Loud
TTITLE8=Hey, Hey
TTITLE9=Flying Horses
TTITLE10=Cover This
TTITLE11=Silent Steeples
TTITLE12=Open Up
TTITLE13=Born Normal
TTITLE14=Bullet Holes
EXTD=
EXTT0=
EXTT1=
EXTT2=
EXTT3=
EXTT4=
EXTT5=
EXTT6=
EXTT7=
EXTT8=
EXTT9=
EXTT10=
EXTT11=
EXTT12=
EXTT13=
EXTT14=
PLAYORDER=
